<svg xmlns="http://www.w3.org/2000/svg" version="1.1" xmlns:xlink="http://www.w3.org/1999/xlink" xmlns:svgjs="http://svgjs.dev/svgjs" width="2000" height="722" viewBox="0 0 2000 722"><g transform="matrix(1,0,0,1,-1.2121212121213603,-0.11488653309845631)"><svg viewBox="0 0 396 143" data-background-color="#282634" preserveAspectRatio="xMidYMid meet" height="722" width="2000" xmlns="http://www.w3.org/2000/svg" xmlns:xlink="http://www.w3.org/1999/xlink"><g id="tight-bounds" transform="matrix(1,0,0,1,0.24000000000003752,0.022754534948859373)"><svg viewBox="0 0 395.5199999999999 142.95449093010228" height="142.95449093010228" width="395.5199999999999"><g><svg viewBox="0 0 638.8804741875654 230.91331147012988" height="142.95449093010228" width="395.5199999999999"><g transform="matrix(1,0,0,1,0,31.913489501298713)"><svg viewBox="0 0 395.52 167.08633246753246" height="167.08633246753246" width="395.52"><g id="textblocktransform"><svg viewBox="0 0 395.52 167.08633246753246" height="167.08633246753246" width="395.52" id="textblock"><g><svg viewBox="0 0 395.52 167.08633246753246" height="167.08633246753246" width="395.52"><rect width="395.52" height="167.08633246753246" x="0" y="0" opacity="1" fill="#ffffff" data-fill-palette-color="tertiary"></rect><g transform="matrix(1,0,0,1,23.607599999999998,23.607599999999998)"><svg width="348.3048" viewBox="1.95 -40.85 146.29000000000002 50.35" height="119.87113246753246" data-palette-color="#282634"><path d="M12.7 0.45L12.7 0.45Q9.2 0.45 6.88-1.05 4.55-2.55 3.35-5.2 2.15-7.85 1.95-11.35L1.95-11.35 6.95-12.7Q7.1-10.55 7.63-8.55 8.15-6.55 9.35-5.28 10.55-4 12.7-4L12.7-4Q14.9-4 16.03-5.23 17.15-6.45 17.15-8.75L17.15-8.75Q17.15-11.5 15.9-13.18 14.65-14.85 12.75-16.55L12.75-16.55 5.95-22.55Q3.95-24.3 3-26.38 2.05-28.45 2.05-31.5L2.05-31.5Q2.05-35.95 4.6-38.4 7.15-40.85 11.55-40.85L11.55-40.85Q13.95-40.85 15.78-40.23 17.6-39.6 18.82-38.3 20.05-37 20.78-35.02 21.5-33.05 21.75-30.4L21.75-30.4 16.95-29.1Q16.8-31.1 16.35-32.77 15.9-34.45 14.78-35.48 13.65-36.5 11.55-36.5L11.55-36.5Q9.45-36.5 8.28-35.38 7.1-34.25 7.1-32.05L7.1-32.05Q7.1-30.2 7.73-29 8.35-27.8 9.75-26.55L9.75-26.55 16.6-20.55Q18.9-18.55 20.65-15.78 22.4-13 22.4-9.2L22.4-9.2Q22.4-6.2 21.15-4.03 19.9-1.85 17.73-0.7 15.55 0.45 12.7 0.45ZM31.85 0L26.5 0 26.5-40.5 31.85-40.5 31.85-25.9Q33.3-27.3 35.1-28.3 36.9-29.3 39.1-29.3L39.1-29.3Q40.8-29.3 41.72-28.4 42.65-27.5 43.02-26.15 43.4-24.8 43.4-23.4L43.4-23.4 43.4 0 38.05 0 38.05-21.85Q38.05-23.4 37.6-24.25 37.15-25.1 35.75-25.1L35.75-25.1Q34.8-25.1 33.77-24.55 32.75-24 31.85-23.2L31.85-23.2 31.85 0ZM56.55 0.4L56.55 0.4Q53.35 0.4 51.5-0.9 49.65-2.2 48.87-4.6 48.1-7 48.1-10.25L48.1-10.25 48.1-18.65Q48.1-21.9 48.87-24.3 49.65-26.7 51.5-28 53.35-29.3 56.55-29.3L56.55-29.3Q59.75-29.3 61.57-28 63.4-26.7 64.17-24.3 64.95-21.9 64.95-18.65L64.95-18.65 64.95-10.25Q64.95-7 64.17-4.6 63.4-2.2 61.57-0.9 59.75 0.4 56.55 0.4ZM56.55-3.55L56.55-3.55Q58.1-3.55 58.72-4.45 59.35-5.35 59.47-6.83 59.6-8.3 59.6-9.9L59.6-9.9 59.6-18.95Q59.6-20.6 59.47-22.05 59.35-23.5 58.72-24.43 58.1-25.35 56.55-25.35L56.55-25.35Q55-25.35 54.35-24.43 53.7-23.5 53.57-22.05 53.45-20.6 53.45-18.95L53.45-18.95 53.45-9.9Q53.45-8.3 53.57-6.83 53.7-5.35 54.35-4.45 55-3.55 56.55-3.55ZM75.19 9.5L69.84 9.5 69.84-28.9 75.19-28.9 75.19-26.6Q76.14-27.7 77.49-28.5 78.84-29.3 80.69-29.3L80.69-29.3Q82.94-29.3 84.27-28.13 85.59-26.95 86.24-25.18 86.89-23.4 87.09-21.58 87.29-19.75 87.29-18.45L87.29-18.45 87.29-11.45Q87.29-8.4 86.69-5.68 86.09-2.95 84.52-1.28 82.94 0.4 80.09 0.4L80.09 0.4Q78.54 0.4 77.34-0.38 76.14-1.15 75.19-2.15L75.19-2.15 75.19 9.5ZM79.04-3.8L79.04-3.8Q80.44-3.8 81.04-4.83 81.64-5.85 81.79-7.6 81.94-9.35 81.94-11.45L81.94-11.45 81.94-18.45Q81.94-20.25 81.74-21.78 81.54-23.3 80.89-24.2 80.24-25.1 78.84-25.1L78.84-25.1Q77.79-25.1 76.84-24.65 75.89-24.2 75.19-23.6L75.19-23.6 75.19-5.1Q75.94-4.55 76.89-4.17 77.84-3.8 79.04-3.8ZM97.49 9.5L92.14 9.5 92.14-28.9 97.49-28.9 97.49-26.6Q98.44-27.7 99.79-28.5 101.14-29.3 102.99-29.3L102.99-29.3Q105.24-29.3 106.57-28.13 107.89-26.95 108.54-25.18 109.19-23.4 109.39-21.58 109.59-19.75 109.59-18.45L109.59-18.45 109.59-11.45Q109.59-8.4 108.99-5.68 108.39-2.95 106.82-1.28 105.24 0.4 102.39 0.4L102.39 0.4Q100.84 0.4 99.64-0.38 98.44-1.15 97.49-2.15L97.49-2.15 97.49 9.5ZM101.34-3.8L101.34-3.8Q102.74-3.8 103.34-4.83 103.94-5.85 104.09-7.6 104.24-9.35 104.24-11.45L104.24-11.45 104.24-18.45Q104.24-20.25 104.04-21.78 103.84-23.3 103.19-24.2 102.54-25.1 101.14-25.1L101.14-25.1Q100.09-25.1 99.14-24.65 98.19-24.2 97.49-23.6L97.49-23.6 97.49-5.1Q98.24-4.55 99.19-4.17 100.14-3.8 101.34-3.8ZM122.44 0.4L122.44 0.4Q119.04 0.4 117.19-0.93 115.34-2.25 114.61-4.83 113.89-7.4 113.89-11.15L113.89-11.15 113.89-17.75Q113.89-21.6 114.64-24.15 115.39-26.7 117.26-28 119.14-29.3 122.44-29.3L122.44-29.3Q126.09-29.3 127.81-27.8 129.54-26.3 130.09-23.48 130.64-20.65 130.64-16.7L130.64-16.7 130.64-14.35 119.24-14.35 119.24-8.55Q119.24-6.8 119.56-5.7 119.89-4.6 120.61-4.08 121.34-3.55 122.49-3.55L122.49-3.55Q123.69-3.55 124.31-4.13 124.94-4.7 125.16-5.78 125.39-6.85 125.39-8.3L125.39-8.3 125.39-10.05 130.59-10.05 130.59-8.95Q130.59-4.6 128.74-2.1 126.89 0.4 122.44 0.4ZM119.24-18.8L119.24-17.25 125.39-17.25 125.39-19.85Q125.39-21.65 125.19-22.88 124.99-24.1 124.36-24.73 123.74-25.35 122.39-25.35L122.39-25.35Q121.09-25.35 120.41-24.75 119.74-24.15 119.49-22.73 119.24-21.3 119.24-18.8L119.24-18.8ZM140.99 0L135.64 0 135.64-28.9 140.99-28.9 140.99-24.8Q142.59-27.45 144.19-28.35 145.79-29.25 147.39-29.25L147.39-29.25Q147.59-29.25 147.76-29.25 147.94-29.25 148.24-29.2L148.24-29.2 148.24-23.3Q147.64-23.55 146.86-23.73 146.09-23.9 145.29-23.9L145.29-23.9Q144.04-23.9 143.01-23.33 141.99-22.75 140.99-21.1L140.99-21.1 140.99 0Z" opacity="1" transform="matrix(1,0,0,1,0,0)" fill="#000000" class="wordmark-text-0" data-fill-palette-color="quaternary" id="text-0"></path></svg></g></svg></g></svg></g></svg></g><g transform="matrix(1,0,0,1,407.3238,0)"><svg viewBox="0 0 231.55667418756542 230.91331147012988" height="230.91331147012988" width="231.55667418756542"><g><svg xmlns="http://www.w3.org/2000/svg" xmlns:xlink="http://www.w3.org/1999/xlink" version="1.1" x="0" y="0" viewBox="5.000278641125133 8.789825052094939 85.85672135887488 85.61817494790506" enable-background="new 0 0 100 100" xml:space="preserve" height="230.91331147012988" width="231.55667418756542" class="icon-icon-0" data-fill-palette-color="accent" id="icon-0"><path d="M52.689 17.054c-1.355 2.908-4.812 4.166-7.718 2.812-2.909-1.357-4.166-4.813-2.811-7.721 1.356-2.907 4.81-4.166 7.719-2.809C52.788 10.692 54.045 14.148 52.689 17.054zM63.884 89.043c-1.481 0-2.684 1.201-2.684 2.681 0 1.482 1.202 2.684 2.684 2.684 1.479 0 2.681-1.201 2.681-2.684C66.564 90.244 65.363 89.043 63.884 89.043zM86.07 89.043c-1.481 0-2.682 1.201-2.682 2.681 0 1.482 1.2 2.684 2.682 2.684s2.681-1.201 2.681-2.684C88.751 90.244 87.552 89.043 86.07 89.043zM89.31 58.62l-28.304-3.805-4.187-8.979c-0.025-0.055-0.061-0.101-0.091-0.152-0.351-0.667-0.902-1.233-1.638-1.578l-11.117-5.183 3.323-7.127c1.67-3.578 0.121-7.831-3.458-9.501-3.579-1.667-7.831-0.12-9.501 3.458l0 0-5.367 11.511L27.99 39.36h0l-8.063 17.293L5.42 87.761c-1.043 2.237-0.075 4.896 2.16 5.939 2.239 1.042 4.896 0.074 5.939-2.162l14.164-30.369 14.294 30.652c1.042 2.236 3.702 3.205 5.938 2.162 2.237-1.044 3.203-3.702 2.162-5.938L35.572 56.939l5.378-11.536 11.117 5.184c0.995 0.465 2.09 0.417 3.014-0.012l11.324 24.282 0.316 0.679-5.453 8.428c-0.356 0.554-0.381 1.251-0.068 1.828 0.313 0.575 0.914 0.933 1.571 0.933h24.191c0.986 0 1.788-0.802 1.788-1.787 0-0.988-0.802-1.788-1.788-1.788l-20.906-0.002 3.732-5.767 19.437-1.698c0.923-0.081 1.632-0.852 1.632-1.781v-13.51C90.857 59.498 90.194 58.739 89.31 58.62z" fill="#ffffff" data-fill-palette-color="accent"></path></svg></g></svg></g></svg></g><defs></defs></svg><rect width="395.5199999999999" height="142.95449093010228" fill="none" stroke="none" visibility="hidden"></rect></g></svg></g></svg>